<svg width="25" height="25" viewBox="0 0 25 25" fill="none" xmlns="http://www.w3.org/2000/svg">
<path d="M18.5742 5.4541C18.4131 5.31738 18.208 5.24414 17.998 5.24414C17.7393 5.24414 17.4902 5.35645 17.3242 5.55664C17.168 5.7373 17.0947 5.9668 17.1143 6.20605C17.1338 6.44043 17.2461 6.66016 17.4268 6.81152C19.126 8.25195 20.1025 10.3418 20.1025 12.5439C20.1025 16.7139 16.6943 20.1025 12.5049 20.1025C8.31543 20.1025 4.90723 16.709 4.90723 12.5439C4.90723 10.3369 5.88379 8.24707 7.58301 6.81152C7.76367 6.66016 7.87598 6.44531 7.89551 6.20605C7.91504 5.97168 7.8418 5.7373 7.68555 5.55664C7.51465 5.36133 7.27051 5.24414 7.01172 5.24414C6.80176 5.24414 6.59668 5.31738 6.43555 5.4541C4.33105 7.23145 3.125 9.81445 3.125 12.5391C3.125 17.6855 7.3291 21.875 12.5 21.875C17.6709 21.875 21.875 17.6855 21.875 12.5391C21.875 9.81445 20.6689 7.23145 18.5742 5.4541Z" fill="#ffffff" fill-opacity="1"/>
<path d="M12.5439 13.4033C13.042 13.4033 13.4473 12.998 13.4473 12.5V4.02832C13.4473 3.53027 13.042 3.125 12.5439 3.125C12.0459 3.125 11.6406 3.53027 11.6406 4.02832V12.5C11.6406 12.998 12.0459 13.4033 12.5439 13.4033Z" fill="#ffffff" fill-opacity="1"/>
</svg>
